<svg version="1.2" xmlns="http://www.w3.org/2000/svg" viewBox="0 0 1874 1752" width="1874" height="1752">
	<title>Untitled-1-ai</title>
	<defs>
		<linearGradient id="g1" x1="124.5" y1="281" x2="2033.6" y2="495.6" gradientUnits="userSpaceOnUse">
			<stop offset="0" stop-color="#15558d"/>
			<stop offset=".5" stop-color="#4dc8e9"/>
			<stop offset="1" stop-color="#15558d"/>
		</linearGradient>
		<linearGradient id="g2" x1="-184.2" y1="128.7" x2="2078.8" y2="383" gradientUnits="userSpaceOnUse">
			<stop offset="0" stop-color="#15558d"/>
			<stop offset=".5" stop-color="#4dc8e9"/>
			<stop offset="1" stop-color="#15558d"/>
		</linearGradient>
		<linearGradient id="g3" x1="679" y1="1053.2" x2="693.6" y2="126.9" gradientUnits="userSpaceOnUse">
			<stop offset="0" stop-color="#15558d"/>
			<stop offset=".5" stop-color="#4dc8e9"/>
			<stop offset="1" stop-color="#15558d"/>
		</linearGradient>
		<linearGradient id="g4" x1="812.9" y1="1043.8" x2="827.6" y2="114.7" gradientUnits="userSpaceOnUse">
			<stop offset="0" stop-color="#15558d"/>
			<stop offset=".5" stop-color="#4dc8e9"/>
			<stop offset="1" stop-color="#15558d"/>
		</linearGradient>
	</defs>
	<style>
		.s0 { fill: url(#g1) } 
		.s1 { fill: url(#g2) } 
		.s2 { fill: url(#g3) } 
		.s3 { fill: url(#g4) } 
	</style>
	<g id="_Artboards_">
	</g>
	<g id="Layer 1">
		<g id="&lt;Group&gt;">
			<g id="&lt;Group&gt;">
				<path id="&lt;Path&gt;" class="s0" d="m71.7 416.5c0 0-135 602.9 452.1 763 0 0-138.8-135.2-138.8-219.8 0-84.7 63.5-98.2 63.5-98.2 0 0 34.7 121.3 219.4 229 184.7 107.8 236.7 232.9 236.7 352.2 0 119.3-86.6 309.8-86.6 309.8 0 0-78.9-117.4-390.6-346.4-311.8-229-427.2-444.5-427.2-644.6 0-200.1 71.5-345 71.5-345z"/>
				<path id="&lt;Path&gt;" class="s1" d="m1802.9 416.5c0 0 135 602.9-452.2 763 0 0 138.8-135.2 138.8-219.8 0-84.7-63.5-98.2-63.5-98.2 0 0-34.6 121.3-219.3 229-184.8 107.8-236.7 232.9-236.7 352.2 0 119.3 86.6 309.8 86.6 309.8 0 0 78.9-117.4 390.6-346.4 311.7-229 427.2-444.5 427.2-644.6 0-200.1-71.5-345-71.5-345z"/>
			</g>
			<path id="&lt;Path&gt;" class="s2" d="m1203.7 0.4c-155.1 0-265.5 146.5-265.5 146.5 0 0-110.4-146.5-265.5-146.5-155 0-329.2 112.6-329.2 324.9 0 43.9 7.9 92.1 23.8 142.7l-160.8 35.7h173.1 339.8l85-244.2 114.7 420.5 133.8-492.7 82.8 318.6h360.2c24.9-64.4 37-125.9 37-180.6 0-212.3-174.2-324.9-329.2-324.9z"/>
			<path id="&lt;Path&gt;" class="s3" d="m1558 565.3h-88.4-21.3-363.6l-38.2-131.7-127.4 477.9-116.8-431.1-29.8 87h-364.7c84.9 168.9 256.6 348.7 530.4 473.7 251.4-114.8 416.6-275.7 507.7-432z"/>
		</g>
	</g>
</svg>